<?xml version="1.0" encoding="UTF-8" standalone="no"?>
<!DOCTYPE svg PUBLIC "-//W3C//DTD SVG 1.1//EN" "http://www.w3.org/Graphics/SVG/1.1/DTD/svg11.dtd">
<svg width="100%" height="100%" viewBox="0 0 182 174" version="1.1" xmlns="http://www.w3.org/2000/svg" xmlns:xlink="http://www.w3.org/1999/xlink" xml:space="preserve" xmlns:serif="http://www.serif.com/" style="fill-rule:evenodd;clip-rule:evenodd;stroke-linejoin:round;stroke-miterlimit:2;">
    <g transform="matrix(1,0,0,1,-271.537,-179.148)">
        <path d="M349.02,228.279C359.852,214.012 372.441,200.474 390.333,195.883C407.662,191.435 417.93,208.905 415.104,224.6C414.321,228.946 417.214,233.109 421.559,233.892C425.904,234.674 430.068,231.782 430.85,227.436C435.677,200.635 415.945,172.79 386.355,180.385C364.887,185.895 349.275,201.484 336.277,218.603C333.607,222.12 334.294,227.143 337.81,229.813C341.327,232.483 346.35,231.795 349.02,228.279Z"/>
    </g>
    <g transform="matrix(1,0,0,1,-271.537,-179.148)">
        <path d="M416.24,235.414C418.677,258.385 417.795,288.353 400.951,306.218C392.551,315.128 379.377,318.211 367.652,320.035C339.645,324.391 307.887,321.081 284.052,304.782C280.408,302.29 275.425,303.226 272.933,306.87C270.441,310.515 271.376,315.497 275.021,317.99C302.158,336.546 338.225,340.804 370.111,335.844C385.2,333.497 401.782,328.66 412.593,317.194C432.527,296.051 435.035,260.913 432.151,233.727C431.685,229.336 427.743,226.149 423.352,226.615C418.961,227.081 415.775,231.024 416.24,235.414Z"/>
    </g>
    <g transform="matrix(1,0,0,1,-271.537,-179.148)">
        <path d="M280.753,312.844C296.771,312.529 318.72,311.139 336.134,303.618C349.158,297.993 359.725,289.045 364.705,275.363C367.558,267.529 368.735,258.259 368.875,249.914C369.044,239.848 366.106,230.074 364.15,220.282C363.284,215.953 359.067,213.14 354.737,214.005C350.407,214.871 347.595,219.088 348.46,223.418C350.194,232.097 353.027,240.723 352.877,249.646C352.766,256.279 351.938,263.663 349.671,269.89C345.313,281.859 334.324,288.045 322.128,291.692C308.162,295.867 292.437,296.611 280.438,296.848C276.023,296.935 272.51,300.589 272.597,305.004C272.684,309.418 276.339,312.932 280.753,312.844Z"/>
    </g>
    <g transform="matrix(1,0,0,1,-271.537,-179.148)">
        <path d="M372.153,331.763C371.966,335.837 371.889,339.917 371.67,343.989C371.433,348.398 374.82,352.17 379.229,352.407C383.638,352.644 387.41,349.257 387.647,344.848C387.868,340.734 387.948,336.612 388.136,332.496C388.338,328.085 384.922,324.34 380.511,324.138C376.1,323.936 372.355,327.352 372.153,331.763Z"/>
    </g>
    <g transform="matrix(1,0,0,1,-271.537,-179.148)">
        <path d="M350.704,334.483C350.65,335.154 350.599,335.826 350.548,336.498C350.214,340.901 353.518,344.746 357.921,345.079C362.323,345.413 366.169,342.109 366.502,337.707C366.551,337.063 366.6,336.42 366.652,335.776C367.009,331.375 363.726,327.513 359.325,327.156C354.924,326.799 351.061,330.082 350.704,334.483Z"/>
    </g>
    <g transform="matrix(1,0,0,1,-271.537,-179.148)">
        <path d="M398.837,211.73C398.783,214.356 398.679,216.978 398.696,219.605C398.709,221.813 400.513,223.594 402.721,223.58C404.928,223.566 406.709,221.763 406.695,219.555C406.679,216.999 406.783,214.449 406.835,211.894C406.88,209.687 405.125,207.858 402.918,207.813C400.711,207.768 398.882,209.523 398.837,211.73Z"/>
    </g>
    <g transform="matrix(1,0,0,1,-271.537,-179.148)">
        <path d="M438.71,222.466C435.213,222.574 431.709,222.782 428.226,223.003C426.023,223.142 424.121,221.467 423.981,219.264C423.842,217.06 425.517,215.158 427.72,215.019C432.369,214.724 437.054,214.455 441.714,214.397C443.305,214.377 444.897,214.383 446.488,214.414C447.006,214.424 447.525,214.434 448.043,214.447C447.901,214.443 447.503,214.478 447.503,214.478C447.503,214.478 450.179,214.626 450.646,214.888C451.562,215.403 452.14,216.142 452.462,217.019C452.747,217.794 452.951,218.865 452.293,220.215C451.149,222.564 448.64,224.664 446.682,226.332C442.541,229.86 437.84,232.722 433.579,236.119C431.852,237.495 429.334,237.211 427.957,235.485C426.581,233.759 426.865,231.24 428.592,229.864C431.855,227.262 435.385,224.985 438.71,222.466Z"/>
    </g>
</svg>
